<mxfile host="app.diagrams.net" agent="Mozilla/5.0 (Macintosh; Intel Mac OS X 10_15_7) AppleWebKit/537.36 (KHTML, like Gecko) Chrome/139.0.0.0 Safari/537.36" version="28.2.0">
  <diagram name="Page-1" id="pJ9XzJH7ZBYkmejDXIco">
    <mxGraphModel dx="13640" dy="9407" grid="1" gridSize="10" guides="1" tooltips="1" connect="1" arrows="1" fold="1" page="1" pageScale="1" pageWidth="850" pageHeight="1100" math="0" shadow="0">
      <root>
        <mxCell id="0" />
        <mxCell id="1" parent="0" />
        <mxCell id="vEDdWBqeB2itohQSU2sl-1" value="Google Cloud Platform" style="shape=rectangle;rounded=1;arcSize=10;fillColor=#F3E5F5;strokeColor=#8E24AA;strokeWidth=2;shadow=1;dashed=0;html=1;fontFamily=Inter;fontSize=14;fontStyle=1;verticalAlign=top;align=left;spacingLeft=10;spacingTop=5;" vertex="1" parent="1">
          <mxGeometry x="-840" y="-270" width="1600" height="700" as="geometry" />
        </mxCell>
        <mxCell id="vEDdWBqeB2itohQSU2sl-2" value="On-Premises Data Centers" style="shape=rectangle;rounded=1;arcSize=10;fillColor=#F1F3F4;strokeColor=#5F6368;strokeWidth=2;shadow=1;dashed=0;html=1;fontFamily=Inter;fontSize=14;fontStyle=1;verticalAlign=top;align=left;spacingLeft=10;spacingTop=5;" vertex="1" parent="1">
          <mxGeometry x="-840" y="450" width="780" height="380" as="geometry" />
        </mxCell>
        <mxCell id="vEDdWBqeB2itohQSU2sl-3" value="On-Prem K8s Cluster 1" style="shape=rectangle;rounded=1;arcSize=5;fillColor=#FFFFFF;strokeColor=#5F6368;strokeWidth=1;dashed=1;html=1;fontFamily=Inter;fontSize=12;fontStyle=1;verticalAlign=top;align=left;spacingLeft=8;spacingTop=5;" vertex="1" parent="vEDdWBqeB2itohQSU2sl-2">
          <mxGeometry x="20" y="40" width="230" height="150" as="geometry" />
        </mxCell>
        <mxCell id="vEDdWBqeB2itohQSU2sl-4" value="otel-a&lt;br&gt;(Apps)" style="shape=hexagon;perimeter=hexagonPerimeter2;whiteSpace=wrap;html=1;fillColor=#C5E1A5;strokeColor=#7CB342;fontFamily=Inter;fontSize=11;" vertex="1" parent="vEDdWBqeB2itohQSU2sl-3">
          <mxGeometry x="130" y="45" width="80" height="90" as="geometry" />
        </mxCell>
        <mxCell id="vEDdWBqeB2itohQSU2sl-5" value="Microservices" style="shape=cube;whiteSpace=wrap;html=1;boundedLbl=1;backgroundOutline=1;darkOpacity=0.05;fillColor=#CFD8DC;strokeColor=#546E7A;" vertex="1" parent="vEDdWBqeB2itohQSU2sl-3">
          <mxGeometry x="10" y="20" width="110" height="50" as="geometry" />
        </mxCell>
        <mxCell id="vEDdWBqeB2itohQSU2sl-6" value="kube-state-metrics" style="shape=document;whiteSpace=wrap;html=1;boundedLbl=1;fillColor=#E1F5FE;strokeColor=#03A9F4;" vertex="1" parent="vEDdWBqeB2itohQSU2sl-3">
          <mxGeometry x="10" y="80" width="110" height="50" as="geometry" />
        </mxCell>
        <mxCell id="vEDdWBqeB2itohQSU2sl-7" value="On-Prem K8s Cluster 2" style="shape=rectangle;rounded=1;arcSize=5;fillColor=#FFFFFF;strokeColor=#5F6368;strokeWidth=1;dashed=1;html=1;fontFamily=Inter;fontSize=12;fontStyle=1;verticalAlign=top;align=left;spacingLeft=8;spacingTop=5;" vertex="1" parent="vEDdWBqeB2itohQSU2sl-2">
          <mxGeometry x="270" y="40" width="230" height="150" as="geometry" />
        </mxCell>
        <mxCell id="vEDdWBqeB2itohQSU2sl-8" value="otel-a&lt;br&gt;(Apps)" style="shape=hexagon;perimeter=hexagonPerimeter2;whiteSpace=wrap;html=1;fillColor=#C5E1A5;strokeColor=#7CB342;fontFamily=Inter;fontSize=11;" vertex="1" parent="vEDdWBqeB2itohQSU2sl-7">
          <mxGeometry x="130" y="45" width="80" height="90" as="geometry" />
        </mxCell>
        <mxCell id="vEDdWBqeB2itohQSU2sl-9" value="Microservices" style="shape=cube;whiteSpace=wrap;html=1;boundedLbl=1;backgroundOutline=1;darkOpacity=0.05;fillColor=#CFD8DC;strokeColor=#546E7A;" vertex="1" parent="vEDdWBqeB2itohQSU2sl-7">
          <mxGeometry x="10" y="20" width="110" height="50" as="geometry" />
        </mxCell>
        <mxCell id="vEDdWBqeB2itohQSU2sl-10" value="kube-state-metrics" style="shape=document;whiteSpace=wrap;html=1;boundedLbl=1;fillColor=#E1F5FE;strokeColor=#03A9F4;" vertex="1" parent="vEDdWBqeB2itohQSU2sl-7">
          <mxGeometry x="10" y="80" width="110" height="50" as="geometry" />
        </mxCell>
        <mxCell id="vEDdWBqeB2itohQSU2sl-11" value="On-Prem K8s Cluster 3 (etc..)" style="shape=rectangle;rounded=1;arcSize=5;fillColor=#FFFFFF;strokeColor=#5F6368;strokeWidth=1;dashed=1;html=1;fontFamily=Inter;fontSize=12;fontStyle=1;verticalAlign=top;align=left;spacingLeft=8;spacingTop=5;" vertex="1" parent="vEDdWBqeB2itohQSU2sl-2">
          <mxGeometry x="520" y="40" width="240" height="150" as="geometry" />
        </mxCell>
        <mxCell id="vEDdWBqeB2itohQSU2sl-12" value="" style="shape=umlActor;verticalLabelPosition=bottom;verticalAlign=top;html=1;outlineConnect=0;fillColor=#B2DFDB;strokeColor=#00796B;" vertex="1" parent="1">
          <mxGeometry x="640" y="30" width="30" height="60" as="geometry" />
        </mxCell>
        <mxCell id="vEDdWBqeB2itohQSU2sl-13" value="Observability Team" style="text;html=1;strokeColor=none;fillColor=none;align=center;verticalAlign=middle;whiteSpace=wrap;rounded=0;" vertex="1" parent="1">
          <mxGeometry x="625" y="100" width="60" height="30" as="geometry" />
        </mxCell>
        <mxCell id="vEDdWBqeB2itohQSU2sl-14" value="Central Observability Project (Hub)" style="shape=rectangle;rounded=1;arcSize=10;fillColor=#E3F2FD;strokeColor=#1E88E5;strokeWidth=2;shadow=1;dashed=0;html=1;fontFamily=Inter;fontSize=14;fontStyle=1;verticalAlign=top;align=left;spacingLeft=10;spacingTop=5;" vertex="1" parent="1">
          <mxGeometry x="-30" y="-230" width="770" height="640" as="geometry" />
        </mxCell>
        <mxCell id="vEDdWBqeB2itohQSU2sl-15" value="Central GKE Cluster" style="shape=rectangle;rounded=1;arcSize=5;fillColor=#FFFFFF;strokeColor=#4285F4;strokeWidth=1;dashed=1;html=1;fontFamily=Inter;fontSize=12;fontStyle=1;verticalAlign=top;align=left;spacingLeft=8;spacingTop=5;" vertex="1" parent="vEDdWBqeB2itohQSU2sl-14">
          <mxGeometry x="20" y="40" width="320" height="580" as="geometry" />
        </mxCell>
        <mxCell id="vEDdWBqeB2itohQSU2sl-16" value="otel-g&lt;br&gt;(Gateway)" style="shape=hexagon;perimeter=hexagonPerimeter2;whiteSpace=wrap;html=1;fillColor=#FFD54F;strokeColor=#FFA000;fontFamily=Inter;fontSize=12;fontStyle=1;" vertex="1" parent="vEDdWBqeB2itohQSU2sl-15">
          <mxGeometry x="110" y="250" width="100" height="110" as="geometry" />
        </mxCell>
        <mxCell id="vEDdWBqeB2itohQSU2sl-17" value="otel-a&lt;br&gt;(Apps)" style="shape=hexagon;perimeter=hexagonPerimeter2;whiteSpace=wrap;html=1;fillColor=#C5E1A5;strokeColor=#7CB342;fontFamily=Inter;fontSize=11;" vertex="1" parent="vEDdWBqeB2itohQSU2sl-15">
          <mxGeometry x="20" y="100" width="80" height="90" as="geometry" />
        </mxCell>
        <mxCell id="vEDdWBqeB2itohQSU2sl-18" value="otel-c&lt;br&gt;(Cluster)" style="shape=hexagon;perimeter=hexagonPerimeter2;whiteSpace=wrap;html=1;fillColor=#C5E1A5;strokeColor=#7CB342;fontFamily=Inter;fontSize=11;" vertex="1" parent="vEDdWBqeB2itohQSU2sl-15">
          <mxGeometry x="20" y="340" width="80" height="90" as="geometry" />
        </mxCell>
        <mxCell id="vEDdWBqeB2itohQSU2sl-19" value="otel-i&lt;br&gt;(Internal)" style="shape=hexagon;perimeter=hexagonPerimeter2;whiteSpace=wrap;html=1;fillColor=#C5E1A5;strokeColor=#7CB342;fontFamily=Inter;fontSize=11;" vertex="1" parent="vEDdWBqeB2itohQSU2sl-15">
          <mxGeometry x="220" y="100" width="80" height="90" as="geometry" />
        </mxCell>
        <mxCell id="vEDdWBqeB2itohQSU2sl-20" value="Microservices" style="shape=cube;whiteSpace=wrap;html=1;boundedLbl=1;backgroundOutline=1;darkOpacity=0.05;fillColor=#CFD8DC;strokeColor=#546E7A;" vertex="1" parent="vEDdWBqeB2itohQSU2sl-15">
          <mxGeometry x="20" y="40" width="120" height="50" as="geometry" />
        </mxCell>
        <mxCell id="vEDdWBqeB2itohQSU2sl-21" value="kube-state-metrics" style="shape=document;whiteSpace=wrap;html=1;boundedLbl=1;fillColor=#E1F5FE;strokeColor=#03A9F4;" vertex="1" parent="vEDdWBqeB2itohQSU2sl-15">
          <mxGeometry x="20" y="480" width="110" height="50" as="geometry" />
        </mxCell>
        <mxCell id="vEDdWBqeB2itohQSU2sl-22" value="node-exporter" style="shape=document;whiteSpace=wrap;html=1;boundedLbl=1;fillColor=#E1F5FE;strokeColor=#03A9F4;" vertex="1" parent="vEDdWBqeB2itohQSU2sl-15">
          <mxGeometry x="190" y="480" width="110" height="50" as="geometry" />
        </mxCell>
        <mxCell id="vEDdWBqeB2itohQSU2sl-23" value="Mimir&lt;br&gt;(Metrics)" style="shape=cylinder3;whiteSpace=wrap;html=1;boundedLbl=1;backgroundOutline=1;size=15;fillColor=#B3E5FC;strokeColor=#0288D1;" vertex="1" parent="vEDdWBqeB2itohQSU2sl-14">
          <mxGeometry x="400" y="120" width="100" height="100" as="geometry" />
        </mxCell>
        <mxCell id="vEDdWBqeB2itohQSU2sl-24" value="Loki&lt;br&gt;(Logs)" style="shape=cylinder3;whiteSpace=wrap;html=1;boundedLbl=1;backgroundOutline=1;size=15;fillColor=#B3E5FC;strokeColor=#0288D1;" vertex="1" parent="vEDdWBqeB2itohQSU2sl-14">
          <mxGeometry x="400" y="270" width="100" height="100" as="geometry" />
        </mxCell>
        <mxCell id="vEDdWBqeB2itohQSU2sl-25" value="Tempo&lt;br&gt;(Traces)" style="shape=cylinder3;whiteSpace=wrap;html=1;boundedLbl=1;backgroundOutline=1;size=15;fillColor=#B3E5FC;strokeColor=#0288D1;" vertex="1" parent="vEDdWBqeB2itohQSU2sl-14">
          <mxGeometry x="400" y="420" width="100" height="100" as="geometry" />
        </mxCell>
        <mxCell id="vEDdWBqeB2itohQSU2sl-26" value="GCS Bucket&lt;br&gt;(Persistence)" style="shape=cylinder3;whiteSpace=wrap;html=1;boundedLbl=1;backgroundOutline=1;size=15;fillColor=#FFCCBC;strokeColor=#F4511E;" vertex="1" parent="vEDdWBqeB2itohQSU2sl-14">
          <mxGeometry x="540" y="270" width="100" height="100" as="geometry" />
        </mxCell>
        <mxCell id="vEDdWBqeB2itohQSU2sl-27" value="Grafana" style="shape=ellipse;perimeter=ellipsePerimeter;whiteSpace=wrap;html=1;aspect=fixed;fillColor=#F9A825;strokeColor=#F57F17;fontColor=#000000;fontFamily=Inter;fontSize=12;fontStyle=1;" vertex="1" parent="vEDdWBqeB2itohQSU2sl-14">
          <mxGeometry x="660" y="280" width="80" height="80" as="geometry" />
        </mxCell>
        <mxCell id="vEDdWBqeB2itohQSU2sl-28" value="Spoke GCP Project 1" style="shape=rectangle;rounded=1;arcSize=10;fillColor=#E3F2FD;strokeColor=#1E88E5;strokeWidth=2;shadow=1;dashed=0;html=1;fontFamily=Inter;fontSize=14;fontStyle=1;verticalAlign=top;align=left;spacingLeft=10;spacingTop=5;" vertex="1" parent="1">
          <mxGeometry x="-820" y="-230" width="370" height="200" as="geometry" />
        </mxCell>
        <mxCell id="vEDdWBqeB2itohQSU2sl-29" value="GKE Cluster" style="shape=rectangle;rounded=1;arcSize=5;fillColor=#FFFFFF;strokeColor=#4285F4;strokeWidth=1;dashed=1;html=1;fontFamily=Inter;fontSize=12;fontStyle=1;verticalAlign=top;align=left;spacingLeft=8;spacingTop=5;" vertex="1" parent="vEDdWBqeB2itohQSU2sl-28">
          <mxGeometry x="15" y="30" width="340" height="150" as="geometry" />
        </mxCell>
        <mxCell id="vEDdWBqeB2itohQSU2sl-30" value="otel-a" style="shape=hexagon;perimeter=hexagonPerimeter2;whiteSpace=wrap;html=1;fillColor=#C5E1A5;strokeColor=#7CB342;fontFamily=Inter;fontSize=11;" vertex="1" parent="vEDdWBqeB2itohQSU2sl-29">
          <mxGeometry x="130" y="30" width="60" height="70" as="geometry" />
        </mxCell>
        <mxCell id="vEDdWBqeB2itohQSU2sl-31" value="otel-c" style="shape=hexagon;perimeter=hexagonPerimeter2;whiteSpace=wrap;html=1;fillColor=#C5E1A5;strokeColor=#7CB342;fontFamily=Inter;fontSize=11;" vertex="1" parent="vEDdWBqeB2itohQSU2sl-29">
          <mxGeometry x="200" y="30" width="60" height="70" as="geometry" />
        </mxCell>
        <mxCell id="vEDdWBqeB2itohQSU2sl-32" value="otel-i" style="shape=hexagon;perimeter=hexagonPerimeter2;whiteSpace=wrap;html=1;fillColor=#C5E1A5;strokeColor=#7CB342;fontFamily=Inter;fontSize=11;" vertex="1" parent="vEDdWBqeB2itohQSU2sl-29">
          <mxGeometry x="270" y="30" width="60" height="70" as="geometry" />
        </mxCell>
        <mxCell id="vEDdWBqeB2itohQSU2sl-33" value="Microservices" style="shape=cube;whiteSpace=wrap;html=1;boundedLbl=1;backgroundOutline=1;darkOpacity=0.05;fillColor=#CFD8DC;strokeColor=#546E7A;" vertex="1" parent="vEDdWBqeB2itohQSU2sl-29">
          <mxGeometry x="10" y="30" width="110" height="50" as="geometry" />
        </mxCell>
        <mxCell id="vEDdWBqeB2itohQSU2sl-34" value="k-s-m" style="shape=document;whiteSpace=wrap;html=1;boundedLbl=1;fillColor=#E1F5FE;strokeColor=#03A9F4;fontSize=10;" vertex="1" parent="vEDdWBqeB2itohQSU2sl-29">
          <mxGeometry x="10" y="90" width="50" height="40" as="geometry" />
        </mxCell>
        <mxCell id="vEDdWBqeB2itohQSU2sl-35" value="node-exp" style="shape=document;whiteSpace=wrap;html=1;boundedLbl=1;fillColor=#E1F5FE;strokeColor=#03A9F4;fontSize=10;" vertex="1" parent="vEDdWBqeB2itohQSU2sl-29">
          <mxGeometry x="70" y="90" width="50" height="40" as="geometry" />
        </mxCell>
        <mxCell id="vEDdWBqeB2itohQSU2sl-36" value="" style="shape=rectangle;fillColor=none;strokeColor=none;" vertex="1" parent="vEDdWBqeB2itohQSU2sl-29">
          <mxGeometry x="130" y="30" width="200" height="70" as="geometry" />
        </mxCell>
        <mxCell id="vEDdWBqeB2itohQSU2sl-37" value="Spoke GCP Project 2" style="shape=rectangle;rounded=1;arcSize=10;fillColor=#E3F2FD;strokeColor=#1E88E5;strokeWidth=2;shadow=1;dashed=0;html=1;fontFamily=Inter;fontSize=14;fontStyle=1;verticalAlign=top;align=left;spacingLeft=10;spacingTop=5;" vertex="1" parent="1">
          <mxGeometry x="-430" y="-230" width="370" height="200" as="geometry" />
        </mxCell>
        <mxCell id="vEDdWBqeB2itohQSU2sl-38" value="GKE Cluster" style="shape=rectangle;rounded=1;arcSize=5;fillColor=#FFFFFF;strokeColor=#4285F4;strokeWidth=1;dashed=1;html=1;fontFamily=Inter;fontSize=12;fontStyle=1;verticalAlign=top;align=left;spacingLeft=8;spacingTop=5;" vertex="1" parent="vEDdWBqeB2itohQSU2sl-37">
          <mxGeometry x="15" y="30" width="340" height="150" as="geometry" />
        </mxCell>
        <mxCell id="vEDdWBqeB2itohQSU2sl-39" value="otel-a" style="shape=hexagon;perimeter=hexagonPerimeter2;whiteSpace=wrap;html=1;fillColor=#C5E1A5;strokeColor=#7CB342;fontFamily=Inter;fontSize=11;" vertex="1" parent="vEDdWBqeB2itohQSU2sl-38">
          <mxGeometry x="130" y="30" width="60" height="70" as="geometry" />
        </mxCell>
        <mxCell id="vEDdWBqeB2itohQSU2sl-40" value="otel-c" style="shape=hexagon;perimeter=hexagonPerimeter2;whiteSpace=wrap;html=1;fillColor=#C5E1A5;strokeColor=#7CB342;fontFamily=Inter;fontSize=11;" vertex="1" parent="vEDdWBqeB2itohQSU2sl-38">
          <mxGeometry x="200" y="30" width="60" height="70" as="geometry" />
        </mxCell>
        <mxCell id="vEDdWBqeB2itohQSU2sl-41" value="otel-i" style="shape=hexagon;perimeter=hexagonPerimeter2;whiteSpace=wrap;html=1;fillColor=#C5E1A5;strokeColor=#7CB342;fontFamily=Inter;fontSize=11;" vertex="1" parent="vEDdWBqeB2itohQSU2sl-38">
          <mxGeometry x="270" y="30" width="60" height="70" as="geometry" />
        </mxCell>
        <mxCell id="vEDdWBqeB2itohQSU2sl-42" value="Microservices" style="shape=cube;whiteSpace=wrap;html=1;boundedLbl=1;backgroundOutline=1;darkOpacity=0.05;fillColor=#CFD8DC;strokeColor=#546E7A;" vertex="1" parent="vEDdWBqeB2itohQSU2sl-38">
          <mxGeometry x="10" y="30" width="110" height="50" as="geometry" />
        </mxCell>
        <mxCell id="vEDdWBqeB2itohQSU2sl-43" value="k-s-m" style="shape=document;whiteSpace=wrap;html=1;boundedLbl=1;fillColor=#E1F5FE;strokeColor=#03A9F4;fontSize=10;" vertex="1" parent="vEDdWBqeB2itohQSU2sl-38">
          <mxGeometry x="10" y="90" width="50" height="40" as="geometry" />
        </mxCell>
        <mxCell id="vEDdWBqeB2itohQSU2sl-44" value="node-exp" style="shape=document;whiteSpace=wrap;html=1;boundedLbl=1;fillColor=#E1F5FE;strokeColor=#03A9F4;fontSize=10;" vertex="1" parent="vEDdWBqeB2itohQSU2sl-38">
          <mxGeometry x="70" y="90" width="50" height="40" as="geometry" />
        </mxCell>
        <mxCell id="vEDdWBqeB2itohQSU2sl-45" value="" style="shape=rectangle;fillColor=none;strokeColor=none;" vertex="1" parent="vEDdWBqeB2itohQSU2sl-38">
          <mxGeometry x="130" y="30" width="200" height="70" as="geometry" />
        </mxCell>
        <mxCell id="vEDdWBqeB2itohQSU2sl-46" value="Spoke GCP Project 3 (etc...)" style="shape=rectangle;rounded=1;arcSize=10;fillColor=#E3F2FD;strokeColor=#1E88E5;strokeWidth=2;shadow=1;dashed=0;html=1;fontFamily=Inter;fontSize=14;fontStyle=1;verticalAlign=top;align=left;spacingLeft=10;spacingTop=5;" vertex="1" parent="1">
          <mxGeometry x="-820" y="-10" width="370" height="200" as="geometry" />
        </mxCell>
        <mxCell id="vEDdWBqeB2itohQSU2sl-47" value="GKE Cluster" style="shape=rectangle;rounded=1;arcSize=5;fillColor=#FFFFFF;strokeColor=#4285F4;strokeWidth=1;dashed=1;html=1;fontFamily=Inter;fontSize=12;fontStyle=1;verticalAlign=top;align=left;spacingLeft=8;spacingTop=5;" vertex="1" parent="vEDdWBqeB2itohQSU2sl-46">
          <mxGeometry x="15" y="30" width="340" height="150" as="geometry" />
        </mxCell>
        <mxCell id="vEDdWBqeB2itohQSU2sl-48" value="" style="edgeStyle=orthogonalEdgeStyle;rounded=1;orthogonalLoop=1;jettySize=auto;html=1;strokeWidth=2;endArrow=classic;endFill=1;strokeColor=#757575;" edge="1" parent="1" source="vEDdWBqeB2itohQSU2sl-20" target="vEDdWBqeB2itohQSU2sl-17">
          <mxGeometry relative="1" as="geometry" />
        </mxCell>
        <mxCell id="vEDdWBqeB2itohQSU2sl-49" value="" style="edgeStyle=orthogonalEdgeStyle;rounded=1;orthogonalLoop=1;jettySize=auto;html=1;strokeWidth=2;endArrow=classic;endFill=1;strokeColor=#757575;" edge="1" parent="1" source="vEDdWBqeB2itohQSU2sl-21" target="vEDdWBqeB2itohQSU2sl-18">
          <mxGeometry relative="1" as="geometry" />
        </mxCell>
        <mxCell id="vEDdWBqeB2itohQSU2sl-50" value="" style="edgeStyle=orthogonalEdgeStyle;rounded=1;orthogonalLoop=1;jettySize=auto;html=1;strokeWidth=2;endArrow=classic;endFill=1;strokeColor=#757575;" edge="1" parent="1" source="vEDdWBqeB2itohQSU2sl-22" target="vEDdWBqeB2itohQSU2sl-18">
          <mxGeometry relative="1" as="geometry" />
        </mxCell>
        <mxCell id="vEDdWBqeB2itohQSU2sl-51" value="" style="edgeStyle=orthogonalEdgeStyle;rounded=1;orthogonalLoop=1;jettySize=auto;html=1;strokeWidth=2;endArrow=classic;endFill=1;strokeColor=#757575;" edge="1" parent="1" source="vEDdWBqeB2itohQSU2sl-17" target="vEDdWBqeB2itohQSU2sl-16">
          <mxGeometry relative="1" as="geometry" />
        </mxCell>
        <mxCell id="vEDdWBqeB2itohQSU2sl-52" value="" style="edgeStyle=orthogonalEdgeStyle;rounded=1;orthogonalLoop=1;jettySize=auto;html=1;strokeWidth=2;endArrow=classic;endFill=1;strokeColor=#757575;" edge="1" parent="1" source="vEDdWBqeB2itohQSU2sl-18" target="vEDdWBqeB2itohQSU2sl-16">
          <mxGeometry relative="1" as="geometry" />
        </mxCell>
        <mxCell id="vEDdWBqeB2itohQSU2sl-53" value="" style="edgeStyle=orthogonalEdgeStyle;rounded=1;orthogonalLoop=1;jettySize=auto;html=1;strokeWidth=2;endArrow=classic;endFill=1;strokeColor=#757575;" edge="1" parent="1" source="vEDdWBqeB2itohQSU2sl-19" target="vEDdWBqeB2itohQSU2sl-16">
          <mxGeometry relative="1" as="geometry" />
        </mxCell>
        <mxCell id="vEDdWBqeB2itohQSU2sl-54" value="Metrics" style="edgeStyle=orthogonalEdgeStyle;rounded=1;orthogonalLoop=1;jettySize=auto;html=1;strokeWidth=2;endArrow=classic;endFill=1;strokeColor=#34A853;" edge="1" parent="1" source="vEDdWBqeB2itohQSU2sl-16" target="vEDdWBqeB2itohQSU2sl-23">
          <mxGeometry relative="1" as="geometry" />
        </mxCell>
        <mxCell id="vEDdWBqeB2itohQSU2sl-55" value="Logs" style="edgeStyle=orthogonalEdgeStyle;rounded=1;orthogonalLoop=1;jettySize=auto;html=1;strokeWidth=2;endArrow=classic;endFill=1;strokeColor=#4285F4;" edge="1" parent="1" source="vEDdWBqeB2itohQSU2sl-16" target="vEDdWBqeB2itohQSU2sl-24">
          <mxGeometry relative="1" as="geometry" />
        </mxCell>
        <mxCell id="vEDdWBqeB2itohQSU2sl-56" value="Traces" style="edgeStyle=orthogonalEdgeStyle;rounded=1;orthogonalLoop=1;jettySize=auto;html=1;strokeWidth=2;endArrow=classic;endFill=1;strokeColor=#FBBC05;" edge="1" parent="1" source="vEDdWBqeB2itohQSU2sl-16" target="vEDdWBqeB2itohQSU2sl-25">
          <mxGeometry relative="1" as="geometry" />
        </mxCell>
        <mxCell id="vEDdWBqeB2itohQSU2sl-57" value="Persistence" style="edgeStyle=orthogonalEdgeStyle;rounded=1;orthogonalLoop=1;jettySize=auto;html=1;strokeWidth=2;endArrow=classic;endFill=1;strokeColor=#757575;dashed=1;" edge="1" parent="1" source="vEDdWBqeB2itohQSU2sl-23" target="vEDdWBqeB2itohQSU2sl-26">
          <mxGeometry relative="1" as="geometry" />
        </mxCell>
        <mxCell id="vEDdWBqeB2itohQSU2sl-58" value="" style="edgeStyle=orthogonalEdgeStyle;rounded=1;orthogonalLoop=1;jettySize=auto;html=1;strokeWidth=2;endArrow=classic;endFill=1;strokeColor=#757575;dashed=1;" edge="1" parent="1" source="vEDdWBqeB2itohQSU2sl-24" target="vEDdWBqeB2itohQSU2sl-26">
          <mxGeometry relative="1" as="geometry" />
        </mxCell>
        <mxCell id="vEDdWBqeB2itohQSU2sl-59" value="" style="edgeStyle=orthogonalEdgeStyle;rounded=1;orthogonalLoop=1;jettySize=auto;html=1;strokeWidth=2;endArrow=classic;endFill=1;strokeColor=#757575;dashed=1;" edge="1" parent="1" source="vEDdWBqeB2itohQSU2sl-25" target="vEDdWBqeB2itohQSU2sl-26">
          <mxGeometry relative="1" as="geometry" />
        </mxCell>
        <mxCell id="vEDdWBqeB2itohQSU2sl-60" value="Queries" style="edgeStyle=orthogonalEdgeStyle;rounded=1;orthogonalLoop=1;jettySize=auto;html=1;strokeWidth=2;endArrow=classic;endFill=1;strokeColor=#EA4335;dashed=1;" edge="1" parent="1" source="vEDdWBqeB2itohQSU2sl-27" target="vEDdWBqeB2itohQSU2sl-23">
          <mxGeometry relative="1" as="geometry" />
        </mxCell>
        <mxCell id="vEDdWBqeB2itohQSU2sl-61" value="" style="edgeStyle=orthogonalEdgeStyle;rounded=1;orthogonalLoop=1;jettySize=auto;html=1;strokeWidth=2;endArrow=classic;endFill=1;strokeColor=#EA4335;dashed=1;" edge="1" parent="1" source="vEDdWBqeB2itohQSU2sl-27" target="vEDdWBqeB2itohQSU2sl-24">
          <mxGeometry relative="1" as="geometry" />
        </mxCell>
        <mxCell id="vEDdWBqeB2itohQSU2sl-62" value="" style="edgeStyle=orthogonalEdgeStyle;rounded=1;orthogonalLoop=1;jettySize=auto;html=1;strokeWidth=2;endArrow=classic;endFill=1;strokeColor=#EA4335;dashed=1;" edge="1" parent="1" source="vEDdWBqeB2itohQSU2sl-27" target="vEDdWBqeB2itohQSU2sl-25">
          <mxGeometry relative="1" as="geometry" />
        </mxCell>
        <mxCell id="vEDdWBqeB2itohQSU2sl-63" value="" style="edgeStyle=orthogonalEdgeStyle;rounded=1;orthogonalLoop=1;jettySize=auto;html=1;strokeWidth=2;endArrow=classic;endFill=1;strokeColor=#00796B;dashed=0;" edge="1" parent="1" source="vEDdWBqeB2itohQSU2sl-12" target="vEDdWBqeB2itohQSU2sl-27">
          <mxGeometry relative="1" as="geometry" />
        </mxCell>
        <mxCell id="vEDdWBqeB2itohQSU2sl-64" value="Metrics, Logs, Traces" style="edgeStyle=orthogonalEdgeStyle;rounded=1;orthogonalLoop=1;jettySize=auto;html=1;strokeWidth=3;endArrow=classic;endFill=1;strokeColor=#E53935;" edge="1" parent="1" source="vEDdWBqeB2itohQSU2sl-36" target="vEDdWBqeB2itohQSU2sl-16">
          <mxGeometry relative="1" as="geometry">
            <mxPoint x="-460" y="-120" as="sourcePoint" />
          </mxGeometry>
        </mxCell>
        <mxCell id="vEDdWBqeB2itohQSU2sl-65" value="" style="edgeStyle=orthogonalEdgeStyle;rounded=1;orthogonalLoop=1;jettySize=auto;html=1;strokeWidth=2;endArrow=classic;endFill=1;strokeColor=#757575;" edge="1" parent="1" source="vEDdWBqeB2itohQSU2sl-33" target="vEDdWBqeB2itohQSU2sl-30" />
        <mxCell id="vEDdWBqeB2itohQSU2sl-66" value="" style="edgeStyle=orthogonalEdgeStyle;rounded=1;orthogonalLoop=1;jettySize=auto;html=1;strokeWidth=2;endArrow=classic;endFill=1;strokeColor=#757575;" edge="1" parent="1" source="vEDdWBqeB2itohQSU2sl-34" target="vEDdWBqeB2itohQSU2sl-31" />
        <mxCell id="vEDdWBqeB2itohQSU2sl-67" value="" style="edgeStyle=orthogonalEdgeStyle;rounded=1;orthogonalLoop=1;jettySize=auto;html=1;strokeWidth=2;endArrow=classic;endFill=1;strokeColor=#757575;" edge="1" parent="1" source="vEDdWBqeB2itohQSU2sl-35" target="vEDdWBqeB2itohQSU2sl-31" />
        <mxCell id="vEDdWBqeB2itohQSU2sl-68" value="" style="edgeStyle=orthogonalEdgeStyle;rounded=1;orthogonalLoop=1;jettySize=auto;html=1;strokeWidth=3;endArrow=classic;endFill=1;strokeColor=#E53935;" edge="1" parent="1" source="vEDdWBqeB2itohQSU2sl-45" target="vEDdWBqeB2itohQSU2sl-16">
          <mxGeometry relative="1" as="geometry">
            <mxPoint x="-70" y="-120" as="sourcePoint" />
          </mxGeometry>
        </mxCell>
        <mxCell id="vEDdWBqeB2itohQSU2sl-69" value="Metrics, Logs, Traces" style="edgeStyle=orthogonalEdgeStyle;rounded=1;orthogonalLoop=1;jettySize=auto;html=1;strokeWidth=3;endArrow=classic;endFill=1;strokeColor=#E53935;" edge="1" parent="1" source="vEDdWBqeB2itohQSU2sl-4" target="vEDdWBqeB2itohQSU2sl-16">
          <mxGeometry relative="1" as="geometry" />
        </mxCell>
        <mxCell id="vEDdWBqeB2itohQSU2sl-70" value="" style="edgeStyle=orthogonalEdgeStyle;rounded=1;orthogonalLoop=1;jettySize=auto;html=1;strokeWidth=2;endArrow=classic;endFill=1;strokeColor=#757575;" edge="1" parent="1" source="vEDdWBqeB2itohQSU2sl-5" target="vEDdWBqeB2itohQSU2sl-4" />
        <mxCell id="vEDdWBqeB2itohQSU2sl-71" value="" style="edgeStyle=orthogonalEdgeStyle;rounded=1;orthogonalLoop=1;jettySize=auto;html=1;strokeWidth=2;endArrow=classic;endFill=1;strokeColor=#757575;" edge="1" parent="1" source="vEDdWBqeB2itohQSU2sl-6" target="vEDdWBqeB2itohQSU2sl-4" />
        <mxCell id="vEDdWBqeB2itohQSU2sl-72" value="" style="edgeStyle=orthogonalEdgeStyle;rounded=1;orthogonalLoop=1;jettySize=auto;html=1;strokeWidth=3;endArrow=classic;endFill=1;strokeColor=#E53935;" edge="1" parent="1" source="vEDdWBqeB2itohQSU2sl-8" target="vEDdWBqeB2itohQSU2sl-16">
          <mxGeometry relative="1" as="geometry" />
        </mxCell>
        <mxCell id="vEDdWBqeB2itohQSU2sl-73" value="Legend" style="shape=rectangle;rounded=1;arcSize=5;fillColor=#FFFFFF;strokeColor=#000000;strokeWidth=1;dashed=0;html=1;fontFamily=Inter;fontSize=12;fontStyle=1;verticalAlign=top;align=left;spacingLeft=8;spacingTop=5;" vertex="1" parent="1">
          <mxGeometry x="-820" y="210" width="370" height="200" as="geometry" />
        </mxCell>
        <mxCell id="vEDdWBqeB2itohQSU2sl-74" value="OTel Collector" style="shape=hexagon;perimeter=hexagonPerimeter2;whiteSpace=wrap;html=1;fillColor=#C5E1A5;strokeColor=#7CB342;fontFamily=Inter;fontSize=11;" vertex="1" parent="vEDdWBqeB2itohQSU2sl-73">
          <mxGeometry x="20" y="30" width="70" height="40" as="geometry" />
        </mxCell>
        <mxCell id="vEDdWBqeB2itohQSU2sl-75" value="OTel Gateway" style="shape=hexagon;perimeter=hexagonPerimeter2;whiteSpace=wrap;html=1;fillColor=#FFD54F;strokeColor=#FFA000;fontFamily=Inter;fontSize=12;fontStyle=1;" vertex="1" parent="vEDdWBqeB2itohQSU2sl-73">
          <mxGeometry x="20" y="80" width="70" height="40" as="geometry" />
        </mxCell>
        <mxCell id="vEDdWBqeB2itohQSU2sl-76" value="Storage Backend" style="shape=cylinder3;whiteSpace=wrap;html=1;boundedLbl=1;backgroundOutline=1;size=15;fillColor=#B3E5FC;strokeColor=#0288D1;" vertex="1" parent="vEDdWBqeB2itohQSU2sl-73">
          <mxGeometry x="20" y="130" width="70" height="50" as="geometry" />
        </mxCell>
        <mxCell id="vEDdWBqeB2itohQSU2sl-77" value="Metrics Flow" style="edgeStyle=orthogonalEdgeStyle;rounded=1;orthogonalLoop=1;jettySize=auto;html=1;strokeWidth=2;endArrow=none;endFill=0;strokeColor=#34A853;" edge="1" parent="vEDdWBqeB2itohQSU2sl-73">
          <mxGeometry width="50" height="50" relative="1" as="geometry">
            <mxPoint x="120" y="45" as="sourcePoint" />
            <mxPoint x="220" y="45" as="targetPoint" />
          </mxGeometry>
        </mxCell>
        <mxCell id="vEDdWBqeB2itohQSU2sl-78" value="Logs Flow" style="edgeStyle=orthogonalEdgeStyle;rounded=1;orthogonalLoop=1;jettySize=auto;html=1;strokeWidth=2;endArrow=none;endFill=0;strokeColor=#4285F4;" edge="1" parent="vEDdWBqeB2itohQSU2sl-73">
          <mxGeometry width="50" height="50" relative="1" as="geometry">
            <mxPoint x="120" y="75" as="sourcePoint" />
            <mxPoint x="220" y="75" as="targetPoint" />
          </mxGeometry>
        </mxCell>
        <mxCell id="vEDdWBqeB2itohQSU2sl-79" value="Traces Flow" style="edgeStyle=orthogonalEdgeStyle;rounded=1;orthogonalLoop=1;jettySize=auto;html=1;strokeWidth=2;endArrow=none;endFill=0;strokeColor=#FBBC05;" edge="1" parent="vEDdWBqeB2itohQSU2sl-73">
          <mxGeometry width="50" height="50" relative="1" as="geometry">
            <mxPoint x="120" y="105" as="sourcePoint" />
            <mxPoint x="220" y="105" as="targetPoint" />
          </mxGeometry>
        </mxCell>
        <mxCell id="vEDdWBqeB2itohQSU2sl-80" value="Query Flow" style="edgeStyle=orthogonalEdgeStyle;rounded=1;orthogonalLoop=1;jettySize=auto;html=1;strokeWidth=2;endArrow=none;endFill=0;strokeColor=#EA4335;dashed=1;" edge="1" parent="vEDdWBqeB2itohQSU2sl-73">
          <mxGeometry width="50" height="50" relative="1" as="geometry">
            <mxPoint x="120" y="135" as="sourcePoint" />
            <mxPoint x="220" y="135" as="targetPoint" />
          </mxGeometry>
        </mxCell>
        <mxCell id="vEDdWBqeB2itohQSU2sl-81" value="Main Telemetry Forwarding" style="edgeStyle=orthogonalEdgeStyle;rounded=1;orthogonalLoop=1;jettySize=auto;html=1;strokeWidth=3;endArrow=none;endFill=0;strokeColor=#E53935;" edge="1" parent="vEDdWBqeB2itohQSU2sl-73">
          <mxGeometry width="50" height="50" relative="1" as="geometry">
            <mxPoint x="120" y="165" as="sourcePoint" />
            <mxPoint x="280" y="165" as="targetPoint" />
          </mxGeometry>
        </mxCell>
      </root>
    </mxGraphModel>
  </diagram>
</mxfile>
